<?xml version="1.0" encoding="UTF-8" standalone="no"?>
<!-- Created with Inkscape (http://www.inkscape.org/) -->

<svg
   width="20.32mm"
   height="128.5mm"
   viewBox="0 0 20.32 128.5"
   version="1.1"
   id="svg1"
   sodipodi:docname="HelloSine.svg"
   inkscape:version="1.4.3 (0d15f75, 2025-12-25)"
   xmlns:inkscape="http://www.inkscape.org/namespaces/inkscape"
   xmlns:sodipodi="http://sodipodi.sourceforge.net/DTD/sodipodi-0.dtd"
   xmlns="http://www.w3.org/2000/svg"
   xmlns:svg="http://www.w3.org/2000/svg">
  <sodipodi:namedview
     id="namedview1"
     pagecolor="#ffffff"
     bordercolor="#000000"
     borderopacity="0.25"
     inkscape:showpageshadow="2"
     inkscape:pageopacity="0.0"
     inkscape:pagecheckerboard="0"
     inkscape:deskcolor="#d1d1d1"
     inkscape:document-units="mm"
     inkscape:zoom="1.5686457"
     inkscape:cx="181.68539"
     inkscape:cy="213.24127"
     inkscape:window-width="2560"
     inkscape:window-height="1369"
     inkscape:window-x="2552"
     inkscape:window-y="-8"
     inkscape:window-maximized="1"
     inkscape:current-layer="layer2" />
  <defs
     id="defs1" />
  <g
     inkscape:groupmode="layer"
     id="layer2"
     inkscape:label="panel">
    <rect
       style="fill:#d4c9e0;fill-opacity:1;stroke-width:0.264583"
       id="rect1"
       width="20.32"
       height="128.5"
       x="0"
       y="0"
       inkscape:label="BackgroundColor" />
    <g
       id="text3"
       style="font-size:7.05556px;font-family:'Feeling Lucky-Demo';-inkscape-font-specification:'Feeling Lucky-Demo';text-align:center;letter-spacing:-0.132292px;text-anchor:middle;fill:#533c6a;stroke-width:0.264583"
       inkscape:label="MEGABLOB"
       aria-label="MEGA&#10;BLOB"
       transform="translate(0.14956013,-4.7625002)">
      <path
         d="m 3.2941867,119.20837 c -0.813043,-0.11025 -0.7269156,-0.7407 -0.4409725,-1.76045 0.3066137,-1.07831 0.3410647,-1.68465 0.1309137,-2.3151 -0.037896,-0.1068 -0.079237,-0.22738 -0.089573,-0.26872 -0.058567,-0.1757 0.048231,-0.35485 0.2790529,-0.46853 0.2721627,-0.13436 0.6166725,-0.14814 0.9542921,-0.0379 0.3617352,0.12058 0.5856666,0.37896 0.7475862,0.86817 l 0.048231,0.15158 0.027561,-0.0758 c 0.062012,-0.17226 0.1998157,-0.44098 0.2859431,-0.55466 0.2928333,-0.38241 0.985298,-0.63046 1.4986175,-0.31695 0.1136883,0.0723 0.1791451,0.1757 0.1791451,0.28939 0,0.0448 -0.044786,0.22393 -0.096463,0.39618 -0.1550294,0.47887 -0.1722549,0.60289 -0.1757,1.03698 0,0.48231 0.041341,0.75103 0.1998157,1.3298 0.2170411,0.78893 0.2377117,0.89228 0.2032607,1.13689 -0.037896,0.29972 -0.1688098,0.46508 -0.423747,0.54777 -0.1378039,0.0448 -0.2067058,0.0517 -0.5133195,0.0517 -0.2962784,0 -0.3755157,-0.0103 -0.5064294,-0.0517 -0.2721627,-0.0861 -0.4065215,-0.24116 -0.4513078,-0.50988 -0.01378,-0.0827 -0.020671,-0.2067 -0.01378,-0.26872 0.020671,-0.16536 0.1309137,-0.65456 0.2135961,-0.94051 0.1722548,-0.61667 0.2618274,-1.11621 0.2618274,-1.48483 0,-0.26528 -0.01378,-0.27906 -0.1481392,-0.12403 -0.210151,0.23771 -0.2893882,0.56155 -0.2480471,0.99908 0.031006,0.33418 0.00345,0.38585 -0.2411568,0.42719 -0.1688098,0.031 -0.3445098,-0.0103 -0.423747,-0.093 -0.062012,-0.062 -0.062012,-0.0655 -0.058567,-0.37552 0,-0.3514 -0.041341,-0.61323 -0.1274686,-0.79582 -0.058567,-0.12402 -0.1757,-0.26183 -0.2032608,-0.23082 -0.010335,0.007 -0.017225,0.18604 -0.017225,0.3893 0.00345,0.47542 0.044786,0.75447 0.2032607,1.32291 0.2170412,0.78893 0.2377118,0.89228 0.2032608,1.13689 -0.037896,0.29283 -0.1688098,0.46164 -0.4134117,0.54432 -0.1688098,0.0551 -0.599447,0.0792 -0.844049,0.0448 z m 4.8320939,-0.003 c -0.4444176,-0.0241 -0.599447,-0.0723 -0.7544764,-0.23426 -0.1343588,-0.14125 -0.1688098,-0.24805 -0.1688098,-0.50988 0,-0.19292 0.075792,-0.56499 0.2067059,-1.01975 0.316949,-1.10932 0.3410647,-1.73633 0.096463,-2.39434 -0.089573,-0.24116 -0.093018,-0.32728 -0.024116,-0.43064 0.1619196,-0.25493 0.5202098,-0.33417 1.4951725,-0.33417 0.4857587,0 0.6063372,0.007 0.7234705,0.0413 0.3066137,0.0896 0.4168567,0.2446 0.4409727,0.62012 0.0069,0.13436 0,0.2756 -0.01723,0.37207 -0.04823,0.26872 -0.1584742,0.29972 -0.5339899,0.15158 -0.2756078,-0.1068 -0.4478627,-0.14469 -0.637343,-0.13436 -0.1378039,0.007 -0.1446941,0.0103 -0.1791451,0.0861 -0.051676,0.11369 -0.086127,0.37896 -0.068902,0.51677 l 0.017226,0.11713 0.1067981,0.007 c 0.089573,0.003 0.1309137,-0.0103 0.2652725,-0.0861 0.1825902,-0.1068 0.2756078,-0.11713 0.3376196,-0.0448 0.034451,0.0379 0.041341,0.0896 0.048231,0.27216 0.010335,0.28939 -0.024116,0.46853 -0.106798,0.55466 -0.082682,0.0861 -0.1240235,0.0827 -0.2687176,-0.0172 -0.1446941,-0.10335 -0.2790529,-0.16881 -0.3410647,-0.16881 -0.065457,-0.003 -0.082682,0.0896 -0.082682,0.40997 0,0.33762 0.00689,0.36174 0.1309137,0.38241 0.213596,0.031 0.4065215,0 0.6304528,-0.10336 0.3479549,-0.16536 0.3651804,-0.16881 0.4513078,-0.12747 0.075792,0.0379 0.1171338,0.11025 0.1688108,0.28595 0.0379,0.1378 0.04134,0.94051 0,1.15411 -0.06201,0.34795 -0.1653657,0.5202 -0.3307303,0.56499 -0.2997235,0.0861 -0.8853902,0.11024 -1.6054156,0.0689 z m 3.7399974,-0.007 c -0.788927,-0.14814 -1.395264,-0.93017 -1.557184,-2.0016 -0.04134,-0.25494 -0.01722,-0.82338 0.0379,-1.06798 0.16881,-0.70624 0.499539,-1.24368 0.971518,-1.56752 0.265272,-0.18259 0.502984,-0.26527 0.806153,-0.27561 0.444417,-0.0172 0.799262,0.11714 1.088651,0.41686 0.210151,0.21704 0.282498,0.37207 0.292833,0.62356 0.0069,0.16537 0.0034,0.19982 -0.05168,0.31351 -0.07579,0.16192 -0.186035,0.27216 -0.347954,0.35484 -0.261828,0.12747 -0.423747,0.10335 -0.502985,-0.0758 -0.02067,-0.0551 -0.04134,-0.11713 -0.04134,-0.1378 0,-0.0207 -0.02067,-0.0965 -0.04823,-0.16537 -0.120579,-0.33762 -0.475424,-0.23082 -0.68902,0.21015 -0.113688,0.23082 -0.155029,0.44442 -0.155029,0.78204 0,0.46509 0.09646,0.76826 0.310059,1.00597 0.217041,0.23771 0.471978,0.19637 0.616672,-0.0965 0.05857,-0.12403 0.103353,-0.32729 0.08613,-0.3893 -0.02067,-0.0689 -0.08957,-0.0482 -0.206706,0.0586 -0.124024,0.11368 -0.203261,0.14124 -0.282498,0.0999 -0.110243,-0.0551 -0.14814,-0.1378 -0.158475,-0.34451 -0.01033,-0.22048 0.0379,-0.36862 0.137804,-0.43752 0.148139,-0.0999 0.857829,-0.093 1.085206,0.0103 0.08268,0.0379 0.106798,0.0655 0.151584,0.16537 0.106798,0.2446 0.130914,0.81304 0.04823,1.25401 -0.04823,0.26183 -0.16192,0.58567 -0.248048,0.71658 -0.296278,0.45131 -0.788927,0.65113 -1.343588,0.54777 z m 3.994936,-0.3135 c -0.07235,-0.11024 -0.06201,-0.39619 -0.0034,-0.75103 0.02756,-0.16192 0.04134,-0.36518 0.04134,-0.57189 0,-0.28594 -0.0034,-0.32728 -0.04823,-0.41341 -0.05512,-0.10335 -0.08268,-0.12058 -0.206705,-0.12058 -0.110244,0 -0.199816,0.0827 -0.241157,0.21704 -0.05168,0.17915 -0.05168,0.56844 0,1.03698 0.05857,0.50987 0.04823,0.57877 -0.08268,0.7338 -0.113688,0.12747 -0.227376,0.17226 -0.499539,0.19982 -0.530545,0.0482 -0.943957,-0.0792 -1.095541,-0.33418 -0.179145,-0.35829 0.01723,-0.79581 0.165365,-1.12654 0.399631,-0.87161 0.551215,-1.35737 0.706245,-2.27721 0.141249,-0.83027 0.237712,-0.99564 0.651123,-1.14378 0.120579,-0.0413 0.189481,-0.0517 0.430637,-0.0517 0.334175,0.003 0.485759,0.0379 0.633898,0.15503 0.203261,0.15847 0.299724,0.38585 0.375516,0.89228 0.02412,0.16536 0.05857,0.39963 0.07579,0.52365 0.08957,0.6029 0.234267,1.10932 0.454753,1.5813 0.320394,0.69936 0.365181,1.07143 0.313504,1.37804 -0.07924,0.47887 -1.395265,0.50299 -1.670872,0.0724 z m 0.02412,-2.80431 c 0.05168,-0.0551 -0.09302,-0.51332 -0.1757,-0.565 -0.08957,-0.0551 -0.213596,0.0999 -0.275607,0.33418 -0.04479,0.1757 -0.04134,0.24115 0.02067,0.25494 0.137804,0.031 0.396186,0.0172 0.430637,-0.0241 z"
         id="path1" />
      <path
         d="m 4.1616622,126.01748 c -0.4444176,-0.0655 -0.6855744,-0.15847 -0.8130431,-0.32384 -0.1102431,-0.14125 -0.141249,-0.23426 -0.141249,-0.45819 0,-0.21705 0.044786,-0.44098 0.2170412,-1.04731 0.2032608,-0.71314 0.2652725,-1.10244 0.248047,-1.52274 -0.010335,-0.28594 -0.068902,-0.54432 -0.1894803,-0.84405 -0.079237,-0.19637 -0.055122,-0.30316 0.089573,-0.44097 0.2032608,-0.19292 0.5477705,-0.27905 1.1127666,-0.27905 0.8027077,0.003 1.3160273,0.23427 1.5847449,0.72347 0.1136882,0.20326 0.1550294,0.36862 0.1550294,0.62701 0,0.38585 -0.1274686,0.71313 -0.3651804,0.9474 l -0.1240235,0.12402 0.1205784,0.0655 c 0.4857588,0.25494 0.8612745,1.10932 0.3651804,1.84657 -0.1860353,0.27905 -0.4685333,0.45131 -0.8888352,0.54088 -0.3203941,0.0689 -1.0300842,0.0896 -1.3711494,0.0413 z m 0.9095058,-1.12654 c 0.1929255,-0.0448 0.3514,-0.19982 0.3514,-0.34451 0,-0.22738 -0.2790529,-0.38241 -0.5477706,-0.31006 l -0.055122,0.0172 0.017226,0.26183 c 0.00689,0.14469 0.02067,0.29628 0.027561,0.33073 0.01378,0.0758 0.041341,0.0792 0.2067059,0.0448 z m 0.065457,-2.17042 c 0.2652725,-0.1378 0.2618274,-0.39963 -0.010335,-0.53399 -0.089573,-0.0448 -0.1446941,-0.0586 -0.2342667,-0.0517 l -0.1205784,0.007 0.00689,0.18948 c 0.00345,0.10335 0.010335,0.25149 0.020671,0.33073 l 0.010335,0.14125 0.106798,-0.0138 c 0.058567,-0.007 0.1584745,-0.0379 0.2204863,-0.0689 z m 2.3137273,3.30041 c -0.2239313,-0.0276 -0.3755156,-0.0999 -0.4926489,-0.22738 -0.1998157,-0.22737 -0.210151,-0.48576 -0.037896,-1.17478 0.065457,-0.25493 0.1550294,-0.61322 0.2032607,-0.8027 0.2067059,-0.84405 0.1998157,-1.40216 -0.027561,-2.00161 -0.072347,-0.19292 -0.079237,-0.28249 -0.034451,-0.37551 0.2170411,-0.43753 1.2609058,-0.42375 1.4676116,-0.0999 0.044786,0.0724 0.051677,0.10335 0.041341,0.2446 -0.00689,0.13092 -0.031006,0.2136 -0.1205784,0.41686 -0.1894804,0.44442 -0.2377118,0.73036 -0.2377118,1.47106 0,0.72347 0.024116,0.81304 0.2170412,0.81304 0.106798,0 0.2170411,-0.0551 0.389296,-0.19637 0.2135961,-0.17226 0.3100588,-0.20671 0.4306372,-0.14814 0.2067059,0.0999 0.2583824,1.05764 0.079237,1.55718 -0.096463,0.26872 -0.3272843,0.44787 -0.6545686,0.51677 -0.1825902,0.0345 -0.9611822,0.0413 -1.2230097,0.007 z m 3.6745407,0 c -1.5916348,-0.31351 -2.1738564,-3.0248 -0.830268,-4.39595 0.337619,-0.34106 0.671794,-0.50298 1.088651,-0.52021 1.577854,-0.0654 2.353001,2.13596 1.663982,3.68281 -0.272163,0.61668 -0.751032,1.06798 -1.281577,1.20923 -0.186035,0.0517 -0.458198,0.062 -0.640788,0.0241 z m 0.537435,-1.88447 c 0.68213,-0.35829 0.261828,-2.29099 -0.427192,-1.66054 -0.53399,0.48576 -0.327284,2.06017 0.427192,1.66054 z m 2.703024,1.88102 c -0.444418,-0.0655 -0.685575,-0.15847 -0.813043,-0.32384 -0.110243,-0.14125 -0.141249,-0.23426 -0.141249,-0.45819 0,-0.21705 0.04479,-0.44098 0.217041,-1.04731 0.203261,-0.71314 0.265272,-1.10244 0.248047,-1.52274 -0.01034,-0.28594 -0.0689,-0.54432 -0.18948,-0.84405 -0.07924,-0.19637 -0.05512,-0.30316 0.08957,-0.44097 0.203261,-0.19292 0.547771,-0.27905 1.112767,-0.27905 0.802707,0.003 1.316027,0.23427 1.584745,0.72347 0.113688,0.20326 0.155029,0.36862 0.155029,0.62701 0,0.38585 -0.127469,0.71313 -0.36518,0.9474 l -0.124024,0.12402 0.120579,0.0655 c 0.485758,0.25494 0.861274,1.10932 0.36518,1.84657 -0.186035,0.27905 -0.468533,0.45131 -0.888835,0.54088 -0.320394,0.0689 -1.030085,0.0896 -1.371149,0.0413 z m 0.909506,-1.12654 c 0.192925,-0.0448 0.3514,-0.19982 0.3514,-0.34451 0,-0.22738 -0.279053,-0.38241 -0.547771,-0.31006 l -0.05512,0.0172 0.01723,0.26183 c 0.0069,0.14469 0.02067,0.29628 0.02756,0.33073 0.01378,0.0758 0.04134,0.0792 0.206706,0.0448 z m 0.06546,-2.17042 c 0.265273,-0.1378 0.261828,-0.39963 -0.01033,-0.53399 -0.08957,-0.0448 -0.144694,-0.0586 -0.234267,-0.0517 l -0.120578,0.007 0.0069,0.18948 c 0.0034,0.10335 0.01034,0.25149 0.02067,0.33073 l 0.01034,0.14125 0.106798,-0.0138 c 0.05857,-0.007 0.158475,-0.0379 0.220486,-0.0689 z"
         id="path2" />
    </g>
    <rect
       style="fill:#a38bbd;fill-opacity:1;stroke-width:0.276348"
       id="rect6"
       width="14.550652"
       height="20.036963"
       x="2.9322886"
       y="64.659981"
       inkscape:label="OUTArea"
       ry="1.6445317" />
    <path
       style="font-size:4.58611px;font-family:'Gill Sans MT';-inkscape-font-specification:'Gill Sans MT';letter-spacing:-0.132292px;fill:#533c6a;stroke-width:0.264583"
       d="M 7.0830371,10.450034 6.7426617,10.244018 Q 6.4224402,10.049198 6.2858422,9.8610954 6.1514835,9.6707539 6.1514835,9.4244296 q 0,-0.3694864 0.2552815,-0.6001355 0.2575208,-0.230649 0.6673148,-0.230649 0.3918796,0 0.7188191,0.2194525 V 9.3214213 Q 7.4547628,8.9967211 7.0651226,8.9967211 q -0.2194525,0 -0.3605292,0.1030084 -0.1410766,0.100769 -0.1410766,0.2597601 0,0.1410766 0.1030083,0.2642388 0.1030084,0.1231621 0.3336575,0.2575208 l 0.3426146,0.2015378 q 0.5732638,0.340376 0.5732638,0.868853 0,0.376205 -0.2530422,0.611333 -0.2508029,0.235128 -0.653879,0.235128 -0.4635375,0 -0.8442205,-0.284393 v -0.568786 q 0.3627685,0.45906 0.8397419,0.45906 0.2104953,0 0.3493326,-0.116445 0.1410766,-0.118683 0.1410766,-0.295589 0,-0.286632 -0.4120333,-0.541914 z M 8.2808962,8.6339527 H 8.7287585 V 11.762272 H 8.2808962 Z m 3.4953928,0 h 0.425469 V 11.762272 H 11.816597 L 9.7250795,9.355011 v 2.407261 H 9.304089 V 8.6339527 h 0.3627684 l 2.1094316,2.4274143 z m 0.962731,0 h 1.773535 v 0.3985974 h -1.325672 v 0.9539468 h 1.280886 v 0.4008371 h -1.280886 v 0.971861 h 1.368219 v 0.398598 H 12.73902 Z"
       id="text5"
       inkscape:label="SINE"
       aria-label="SINE" />
    <path
       d="m 8.424259,80.625041 q 0.5022949,0 0.8356079,0.31781 0.3348632,0.31781 0.3348632,0.796851 0,0.47904 -0.3379638,0.79375 -0.3364136,0.313159 -0.8495606,0.313159 -0.4898925,0 -0.8170043,-0.313159 -0.3255616,-0.31471 -0.3255616,-0.787549 0,-0.485242 0.3286621,-0.803052 0.3286622,-0.31781 0.8309571,-0.31781 z m 0.012402,0.294556 q -0.3720703,0 -0.6123657,0.232543 -0.2387451,0.232544 -0.2387451,0.593763 0,0.350366 0.2402954,0.58291 0.2402954,0.232544 0.6015137,0.232544 0.3627685,0 0.6046142,-0.237195 0.243396,-0.237195 0.243396,-0.590662 0,-0.344165 -0.243396,-0.578259 Q 8.7901281,80.919597 8.436661,80.919597 Z m 2.912483,-0.26355 h 0.311609 v 1.229382 q 0,0.249597 -0.03721,0.376721 -0.03566,0.127124 -0.08992,0.21239 -0.05271,0.08372 -0.130224,0.150379 -0.257349,0.221692 -0.672827,0.221692 -0.42323,0 -0.679029,-0.220142 -0.07751,-0.06821 -0.1317752,-0.151929 -0.05271,-0.08527 -0.08837,-0.207739 -0.034107,-0.122473 -0.034107,-0.384473 V 80.656047 H 10.10891 v 1.229382 q 0,0.305408 0.06976,0.42478 0.06976,0.119373 0.21239,0.192237 0.142627,0.07131 0.336414,0.07131 0.275952,0 0.449585,-0.144177 0.09147,-0.07751 0.131775,-0.182935 0.04031,-0.10542 0.04031,-0.361218 z m 0.424264,-0.0031 H 13.5826 v 0.275952 h -0.754993 v 1.892908 h -0.311609 v -1.892908 h -0.74259 z"
       id="text6-1"
       style="font-size:3.175px;font-family:'Gill Sans MT';-inkscape-font-specification:'Gill Sans MT';letter-spacing:-0.132292px;fill:#533c6a;stroke-width:0.264583"
       inkscape:label="OUT"
       aria-label="OUT" />
    <path
       d="m 6.9208337,49.651151 h 1.1549682 v 0.275952 H 7.2308923 v 0.604614 h 0.8449096 v 0.275952 H 7.2308923 V 51.81691 H 6.9208337 Z m 1.3637407,2.165759 v -2.165759 h 0.5426025 q 0.3286621,0 0.5208984,0.16278 0.1937867,0.162781 0.1937867,0.440284 0,0.189135 -0.094568,0.327111 -0.094568,0.137976 -0.2713013,0.206189 0.1038697,0.06821 0.2030884,0.186035 0.099219,0.117823 0.2790527,0.410828 0.1131714,0.184485 0.1813843,0.277502 l 0.1147217,0.15503 H 9.5852702 l -0.094568,-0.142627 q -0.00465,-0.0078 -0.018604,-0.02636 L 9.4116374,51.562662 9.3155192,51.404532 9.2116496,51.23555 Q 9.1155314,51.102225 9.0349162,51.02316 8.9558512,50.944095 8.8907389,50.909988 8.8271769,50.874332 8.6752482,50.874332 H 8.594633 V 51.81691 Z M 8.6876506,49.9147 H 8.594633 v 0.68368 h 0.1178222 q 0.2356446,0 0.322461,-0.04031 0.088367,-0.04031 0.1364258,-0.120923 0.049609,-0.08216 0.049609,-0.186035 0,-0.102319 -0.05426,-0.184485 -0.05426,-0.08372 -0.153479,-0.117822 Q 8.9155436,49.9147 8.6876506,49.9147 Z m 1.3730424,-0.263549 h 1.227832 v 0.275952 h -0.917773 v 0.660424 h 0.886767 v 0.277503 h -0.886767 v 0.672827 h 0.947229 v 0.275952 h -1.257288 z m 3.639571,2.302185 -0.311609,0.302307 q -0.145728,-0.0078 -0.305408,-0.05271 -0.15813,-0.04341 -0.322461,-0.120923 -0.162781,-0.07751 -0.435632,-0.2651 -0.395325,-0.07131 -0.652673,-0.375171 -0.255799,-0.303858 -0.255799,-0.700733 0,-0.485241 0.330213,-0.803051 0.330212,-0.31781 0.835608,-0.31781 0.502294,0 0.834057,0.316259 0.333313,0.31471 0.333313,0.7922 0,0.401526 -0.251147,0.705383 -0.251148,0.303858 -0.649573,0.382923 l 0.08216,0.03101 q 0.382923,0.147277 0.551905,0.147277 0.09302,0 0.217041,-0.04186 z M 12.582503,49.9147 q -0.36587,0 -0.604615,0.235645 -0.238745,0.235644 -0.238745,0.593762 0,0.348816 0.240296,0.58136 0.240295,0.230994 0.603064,0.230994 0.358117,0 0.603063,-0.237195 0.244947,-0.237195 0.244947,-0.584461 0,-0.355017 -0.240296,-0.587561 Q 12.949922,49.9147 12.582503,49.9147 Z"
       id="text6"
       style="font-size:3.175px;font-family:'Gill Sans MT';-inkscape-font-specification:'Gill Sans MT';letter-spacing:-0.132292px;fill:#533c6a;stroke-width:0.264583"
       inkscape:label="FREQ"
       aria-label="FREQ" />
  </g>
  <g
     inkscape:groupmode="layer"
     id="layer3"
     inkscape:label="components"
     style="display:none;fill:#0000ff">
    <circle
       style="display:inline;fill:#0000ff;fill-opacity:1;stroke-width:0.330729"
       id="OUT"
       cx="9.98633"
       cy="72.799683"
       inkscape:label="OUT"
       r="5" />
    <circle
       style="display:inline;fill:#ff0000;fill-opacity:1;stroke-width:0.330729"
       id="FREQ"
       cx="10.154669"
       cy="42.405689"
       r="5"
       inkscape:label="FREQ" />
  </g>
</svg>
